<svg width="72" height="26" viewBox="0 0 72 26" fill="none" xmlns="http://www.w3.org/2000/svg">
<path d="M61.0705 0H62.8493C67.698 0 70.5901 1.5856 71.5256 4.7568C71.8419 5.80113 72 6.99829 72 8.34827V26H61.0705V0ZM46.4847 8.34827C46.4847 5.53368 47.1501 3.47049 48.4809 2.15871C49.9434 0.719569 52.3283 0 55.6354 0H57.4142V26H46.4847V8.34827Z" fill="#2D5AFD"/>
<path d="M30.6538 8.09993C30.6538 5.24712 31.4048 3.1903 32.9069 1.92946C34.4485 0.643155 36.919 0 40.3184 0H41.524V13.7355C41.524 19.6576 39.7716 23.4529 36.2668 25.1212C35.0414 25.7071 33.5723 26 31.8594 26H30.6538V8.09993ZM25.9895 26C22.6824 26 20.2185 24.8856 18.5978 22.6569C17.0958 20.5937 16.3447 17.6199 16.3447 13.7355V0H17.5503C20.9497 0 23.4202 0.643155 24.9618 1.92946C26.4639 3.1903 27.2149 5.24712 27.2149 8.09993V26H25.9895Z" fill="#2D5AFD"/>
<path d="M0 0H10.633V26H0V0Z" fill="#2D5AFD"/>
</svg>
